<?xml version="1.0" encoding="UTF-8"?>
<svg width="505px" height="235px" viewBox="0 0 505 235" xmlns="http://www.w3.org/2000/svg" xmlns:xlink="http://www.w3.org/1999/xlink" version="1.1">
 <!-- Generated by Pixelmator Pro 1.6 -->
 <path id="AidPals" d="M396.481 156.788 L396.481 28.413 418.676 28.413 418.676 156.788 396.481 156.788 Z M348.657 156.681 C336.809 156.639 325.211 151.386 317.364 141.671 305.408 126.869 305.408 105.727 317.364 90.925 329.321 76.121 349.991 71.676 366.977 80.251 L366.977 75.917 389.17 75.919 389.17 156.681 366.977 156.681 366.977 152.347 C361.138 155.294 354.862 156.702 348.657 156.681 Z M430.784 156.624 L430.784 134.429 462.266 134.429 C464.22 134.429 465.805 132.846 465.805 130.891 465.805 128.937 464.22 127.352 462.266 127.352 L449.02 127.352 C434.8 127.352 423.274 115.825 423.274 101.606 423.274 87.386 434.8 75.86 449.02 75.86 L480.502 75.86 480.502 98.054 449.02 98.054 C447.058 98.054 445.467 99.643 445.467 101.604 445.467 103.566 447.058 105.157 449.02 105.157 L462.266 105.157 C469.093 105.139 475.644 107.853 480.459 112.694 L480.459 112.696 C487.776 120.011 490 130.996 486.106 140.581 482.212 150.166 472.958 156.486 462.614 156.624 L430.784 156.624 Z M242.256 156.485 L242.256 50.309 232.608 50.309 232.608 28.116 279.895 28.116 279.895 28.118 C300.683 28.118 317.536 44.971 317.536 65.759 317.536 86.547 300.683 103.399 279.895 103.399 L264.45 103.399 264.45 156.485 242.256 156.485 Z M348.788 134.487 C358.829 134.474 366.966 126.338 366.977 116.296 366.977 106.252 358.833 98.108 348.788 98.108 338.744 98.108 330.6 106.252 330.6 116.296 330.6 126.341 338.744 134.483 348.788 134.483 L348.788 134.487 Z M264.45 81.2 L279.895 81.2 C288.426 81.2 295.342 74.284 295.342 65.755 295.342 57.224 288.426 50.307 279.895 50.307 L264.45 50.307 264.45 81.2 Z M206.773 28.304 L206.773 80.25 C189.787 71.675 169.118 76.121 157.161 90.925 145.205 105.727 145.205 126.869 157.161 141.671 169.118 156.474 189.787 160.921 206.773 152.347 L206.773 156.68 228.966 156.68 228.966 28.304 Z M188.585 134.486 C178.542 134.486 170.398 126.344 170.398 116.299 170.398 106.255 178.542 98.111 188.585 98.111 198.63 98.111 206.773 106.255 206.773 116.299 206.762 126.339 198.625 134.473 188.585 134.486 Z M142.677 156.68 L142.677 76.026 120.483 76.026 120.483 156.68 Z M142.677 52.093 L142.677 28.664 120.483 28.664 120.483 52.093 Z M70.609 28.313 C47.085 28.339 28.02 47.402 27.995 70.928 L27.995 156.68 50.188 156.68 50.188 110.997 91.03 110.997 91.03 156.535 113.223 156.535 113.223 70.928 C113.198 47.404 94.133 28.339 70.609 28.313 Z M50.188 88.803 L50.188 70.926 C50.188 59.648 59.33 50.505 70.609 50.505 81.888 50.505 91.03 59.648 91.03 70.926 L91.03 88.803 Z" fill="#33ae44" fill-opacity="1" stroke="none"/>
 <defs>
  <text id="string" transform="matrix(1.0 0.0 0.0 1.0 25.5 165.0)" font-family="Avenir-Medium, Avenir" text-decoration="none" x="1.0" font-size="32" y="32.0" fill="#000d69">crowdfunding done better!</text>
 </defs>
 <use id="crowdfunding-done-better!" xlink:href="#string"/>
</svg>
